<svg xmlns="http://www.w3.org/2000/svg" width="1159.48" height="435.32" viewBox="0 0 1159.48 435.32"><path d="M356.86,158.46a1.24,1.24,0,0,1-.45.24l-13.82-16.4L237.07,17.2l23.59,151.19-4.7,1L223.76,49.44l-35,59.7L107,61.18l40.44,90.16H11.2v-4.78H140L96.46,49.48,187,102.58l38.43-65.4,23.68,88.12L229.71,1.05,345.4,138.24l-22.63-71,4.58-1.45,23,72.24Z" fill="#e07a5f"/><polygon points="346.77 151.42 378.07 105.36 382.02 108.05 355.88 146.53 439.04 145.57 439.1 150.35 346.77 151.42" fill="#e07a5f"/><rect x="402.75" y="169.37" width="63.19" height="4.78" transform="translate(-30.63 216.03) rotate(-27.02)" fill="#e07a5f"/><rect x="375.02" y="137.1" width="4.78" height="62.24" transform="translate(30.63 392.89) rotate(-56.96)" fill="#e07a5f"/><rect x="406.93" y="185.18" width="41.7" height="4.78" fill="#e07a5f"/><rect x="413.69" y="184.07" width="4.78" height="41.09" transform="translate(-46.05 242.36) rotate(-30.86)" fill="#e07a5f"/><rect x="370.25" y="214.09" width="61.44" height="4.78" transform="translate(127.39 580.89) rotate(-81.47)" fill="#e07a5f"/><rect x="326.5" y="192.83" width="79.9" height="4.78" transform="translate(-32.36 79.7) rotate(-11.89)" fill="#e07a5f"/><polygon points="329.64 202.09 325.08 200.65 340.64 151.31 263.06 170.54 261.91 165.89 347.77 144.61 329.64 202.09" fill="#e07a5f"/><polygon points="248.89 270.82 245.69 267.26 274.67 241.31 257.38 170.95 262.02 169.81 280 242.96 248.89 270.82" fill="#e07a5f"/><path d="M187.85,107.73l-46.3,39.94-25.5,104.57L19.62,263.52l-1.91.24.57,4.79,3.16-.39,98.49-11.52.29-1.25,40.27,56.35L81.33,363.83l89.78,58.79,2.58-4L90.08,363.78l72.8-47.88,4.4-2.87-1.81-2.53-35.83-50.13,70.6,8.27,9,1.06a40.8,40.8,0,0,1,30.23.95c2.25,1,4.64,2.11,7.18,3.4l2.77.33.38-4.11,9.38-102.55ZM245.25,268l-.09,1.1-36.36-4.25-88.34-10.34L145.85,150.3l42-36.25,66.35,55.72Z" fill="#e07a5f"/><polygon points="320.05 336.93 315.64 335.07 329.05 303.33 365.14 321.88 375.17 294.81 379.65 296.48 367.76 328.6 331.45 309.94 320.05 336.93" fill="#e07a5f"/><rect x="322.55" y="279.5" width="57.56" height="4.78" transform="translate(-93.82 350.74) rotate(-47.53)" fill="#e07a5f"/><rect x="287.9" y="247.14" width="4.78" height="84.06" transform="translate(-88.59 445.15) rotate(-67.27)" fill="#e07a5f"/><path d="M603.84,181.9q0,20.44-6,31.77-11.22,20.67-42.65,20.66-18.14,0-31-9.84t-12.86-35V178h20.55v11.54q0,13.19,5.88,19.84T556,216q17.47,0,22.86-12,3.3-7.37,3.3-27.81V68.58h21.65Z" fill="#fff"/><path d="M697.59,68.58h24.73L780.9,230.05h-24l-16.38-48.37H676.7l-17.47,48.37H636.8Zm35.94,95.3L709,92.54l-26,71.34Z" fill="#fff"/><path d="M923.44,73.2q24.07,12.64,29.46,44.29H931.25q-4-17.68-16.38-25.77t-31.33-8.08q-22.41,0-37.75,16.82t-15.33,50.12q0,28.8,12.64,46.88t41.21,18.08q21.88,0,36.22-12.7t14.67-41.05H884.64V143.65h70.9v86.4H941.47l-5.28-20.78q-11.1,12.21-19.67,16.93-14.4,8.13-36.6,8.13-28.7,0-49.35-18.57Q808,192.45,808,151.79t22-64.52Q850.9,64.41,884.1,64.41,906.84,64.41,923.44,73.2Z" fill="#fff"/><path d="M597.23,261.91v12.62H561.54v93.29H547V274.53H511.3V261.91Z" fill="#e07a5f"/><path d="M626.48,261.91H703.7v13H640.47V307h58.47V319.3H640.47v35.9h64.31v12.62h-78.3Z" fill="#e07a5f"/><path d="M747.73,333.64q.51,9,4.25,14.64,7.14,10.53,25.16,10.52a44.47,44.47,0,0,0,14.71-2.3q12.82-4.47,12.83-16c0-5.77-1.8-9.87-5.4-12.33s-9.38-4.49-17.16-6.27l-14.35-3.24q-14.06-3.18-19.9-7-10.1-6.65-10.09-19.83,0-14.28,9.88-23.43t28-9.16q16.65,0,28.3,8T815.57,293H802.09q-1.08-8.5-4.62-13.05-6.56-8.28-22.27-8.29-12.69,0-18.24,5.34a16.7,16.7,0,0,0-5.55,12.4q0,7.78,6.48,11.39,4.26,2.31,19.25,5.77L792,309.93q10.75,2.44,16.59,6.7,10.08,7.42,10.09,21.56,0,17.58-12.8,25.16t-29.74,7.57q-19.75,0-30.92-10.1t-11-27.18Z" fill="#e07a5f"/><path d="M928.67,261.91v12.62H893v93.29H878.42V274.53H842.73V261.91Z" fill="#e07a5f"/><path d="M957.92,261.91h77.21v13H971.91V307h58.47V319.3H971.91v35.9h64.31v12.62h-78.3Z" fill="#e07a5f"/><path d="M1071.53,261.91h49q12.1,0,20,3.53,14.93,6.78,14.92,25,0,9.51-3.93,15.57a28.35,28.35,0,0,1-11,9.73,21.73,21.73,0,0,1,9.33,6.64q3.14,4.11,3.5,13.33l.51,14.21a44.16,44.16,0,0,0,1,9c.87,3.36,2.41,5.53,4.62,6.49v2.38h-17.59a13.47,13.47,0,0,1-1.16-3.54,69.12,69.12,0,0,1-.72-8.36l-.86-17.66q-.51-10.38-7.72-13.92c-2.73-1.29-7-1.94-12.9-1.94h-32.66v45.42h-14.34Zm47.5,48.52q10.1,0,16-4t5.88-14.56q0-11.31-8.22-15.43-4.4-2.16-11.75-2.16h-35v36.19Z" fill="#e07a5f"/><circle cx="405.54" cy="186.1" r="7.81" fill="#fff"/><path d="M356.86,158.46a1.24,1.24,0,0,1-.45.24,10.13,10.13,0,0,1-4.1,1.21,11,11,0,1,1,4.55-1.45Z" fill="#fff"/><circle cx="143.7" cy="148.97" r="10.99" fill="#fff"/><circle cx="187.85" cy="105.86" r="10.99" fill="#fff"/><circle cx="258.28" cy="168.76" r="10.99" fill="#fff"/><circle cx="120.58" cy="254.44" r="10.99" fill="#fff"/><circle cx="330.25" cy="306.64" r="8.37" fill="#fff"/><path d="M466.48,159.15a8.22,8.22,0,0,0-4.69-5.74,72.71,72.71,0,0,0-15.4-5.35c-2.92-.72-4.88-1.2-6.12-2.35a26.13,26.13,0,0,1-2-2C432,136.81,412.72,116,385.4,109.41a7.36,7.36,0,0,1-5.59-5.89c-2-11.67-10.24-32-43.39-36.73-42.52-6.08-73.57-40.13-73.85-40.47C259.27,22.59,242.43,4,233.05,7.09c-3.2,1.05-5.07,4.16-5.45,9.28a209.68,209.68,0,0,0-.86,23.1,4.53,4.53,0,0,1-1.91,3.93,4.38,4.38,0,0,1-4.21.57,52,52,0,0,1-7.42-3.49c-14.39-8-111-15.59-181.19,68.93C8.53,137.68-2.67,172.93.54,208.71,6,269.89,67.22,396.88,169.72,432.14a10.34,10.34,0,0,0,3.35.57,10,10,0,0,0,8-15.69c-19-26.26-42.72-79,12.1-136.75a41.6,41.6,0,0,1,16.12-10.57,40.8,40.8,0,0,1,30.23.95c2.25,1,4.64,2.11,7.18,3.4,17.6,9.18,41.23,27.65,64.48,64.67a14,14,0,0,0,9.51,6.46c12.11,2.1,33.92,4.35,43.87-3.93A14.19,14.19,0,0,0,369.76,330a6.7,6.7,0,0,1,2.54-5.35c6.84-5,15.06-12.68,15.3-20.33q.15-5.31-4.45-9.19a15.52,15.52,0,0,1-5.3-13.39c.81-8.9.66-21.29-5-29.71L370.1,248l-1.49,4.69c-.09.19-6.31,18.89-23.24,24.1-14.21,4.36-31.91-1.62-52.57-17.79-8.95-7-13.4-17.65-11.53-27.84,1.67-9.52,8.28-16.84,19.52-21.71A54.8,54.8,0,0,1,335,206.6c50.32,11.67,63.38,20.14,63.24,23-.53,11.15-9.38,20.14-9.47,20.23l-5.17,5.22,7.23-1.15c1.1-.19,26.88-4.45,35.34-24.16a6.82,6.82,0,0,1,3.35-3.49c6.89-3.25,22.87-13.1,22.2-33.38a7.68,7.68,0,0,1,1.72-4.84C460.45,179.19,468.35,167,466.48,159.15Zm-16.74,26A12.16,12.16,0,0,0,447,193c.58,17.46-13.44,26.07-19.46,28.94a11.54,11.54,0,0,0-5.7,5.88c-4.92,11.53-17.31,17.17-25.06,19.61,2.82-4.21,6-10.42,6.31-17.65.15-3,.62-12.19-67-27.84A59.77,59.77,0,0,0,298.87,205c-12.82,5.6-20.33,14.12-22.34,25.26-2.15,11.91,3,24.35,13.35,32.48,22,17.17,41.14,23.44,56.92,18.56,13.68-4.21,21.05-15.64,24.3-22.29,2.63,6.93,2.58,15.59,2,22.29a20.43,20.43,0,0,0,7,17.51,6.47,6.47,0,0,1,2.73,5.3c-.14,4.45-5,10.53-13.39,16.7A11.33,11.33,0,0,0,365,330a9.71,9.71,0,0,1-3.49,7.66c-8.81,7.27-30.9,4.4-40,2.87a9.47,9.47,0,0,1-6.32-4.31c-23.34-37.21-47.26-56.25-65.34-65.91-1.57-.81-3.11-1.58-4.59-2.3-1.29-.62-2.58-1.19-3.82-1.72a45.57,45.57,0,0,0-32.63-1.43,43.9,43.9,0,0,0-8.56,3.82A46.67,46.67,0,0,0,189.72,277c-10.81,11.43-18.7,22.62-24.25,33.53-.91,1.81-1.77,3.63-2.59,5.4A95.92,95.92,0,0,0,154.37,355c0,27.31,12.1,50.08,22.82,64.86a4.92,4.92,0,0,1-.05,5.93,5.07,5.07,0,0,1-5.89,1.82C97.93,402.38,46.12,329.2,21.44,268.16c-.67-1.57-1.29-3.1-1.82-4.64-8.13-20.85-13-40.08-14.3-55.24C2.21,173.74,13,139.73,35.7,112.47c49-58.93,111.88-71.66,147.85-71.66,14,0,23.91,2,27.31,3.83A57.22,57.22,0,0,0,219,48.47a9.32,9.32,0,0,0,8.66-1.2,9.48,9.48,0,0,0,3.87-7.94,202.43,202.43,0,0,1,.82-22.58c.19-2.05.71-4.59,2.25-5.11,4.63-1.53,17.26,9.75,24.39,17.89,1.29,1.43,32.48,35.68,76.77,42,30.14,4.31,37.55,22.39,39.32,32.82a12.21,12.21,0,0,0,9.18,9.71c25.93,6.21,43.82,25.59,50.52,32.86,1.05,1.15,1.81,1.91,2.24,2.34,2.16,2,4.88,2.63,8.28,3.49a66.92,66.92,0,0,1,14.45,5,3.63,3.63,0,0,1,2.1,2.53C462.89,164.75,458.35,174.08,449.74,185.13Z" fill="#fff"/><circle cx="175.86" cy="423.33" r="11.99" fill="#e07a5f"/><circle cx="80.19" cy="368.62" r="11.99" fill="#e07a5f"/><circle cx="101.72" cy="55.32" r="11.99" fill="#e07a5f"/><circle cx="18.01" cy="266.16" r="8.8" fill="#e07a5f"/><circle cx="11.21" cy="148.97" r="8.8" fill="#e07a5f"/><circle cx="224.59" cy="43.33" r="8.8" fill="#e07a5f"/><circle cx="380.05" cy="106.7" r="8.8" fill="#e07a5f"/><circle cx="450.87" cy="188.93" r="5.46" fill="#e07a5f"/><circle cx="396.41" cy="246.86" r="7.24" fill="#e07a5f"/><circle cx="439.07" cy="147.96" r="5.7" fill="#e07a5f"/><circle cx="426.61" cy="226.49" r="5.7" fill="#e07a5f"/><circle cx="380.48" cy="295.64" r="5.7" fill="#e07a5f"/><circle cx="368.07" cy="325.24" r="5.7" fill="#e07a5f"/><circle cx="317.84" cy="340.19" r="7.78" fill="#e07a5f"/><circle cx="247.29" cy="271.73" r="8.2" fill="#e07a5f"/><circle cx="164.92" cy="315.84" r="6.27" fill="#e07a5f"/><circle cx="279.13" cy="243.93" r="5.7" fill="#e07a5f"/><circle cx="371.38" cy="254.44" r="7.58" fill="#e07a5f"/><circle cx="327.36" cy="203.47" r="6.9" fill="#e07a5f"/><circle cx="462.49" cy="157.43" r="9" fill="#e07a5f"/><circle cx="233.25" cy="7.56" r="7.56" fill="#e07a5f"/><circle cx="325.06" cy="66.51" r="5.99" fill="#e07a5f"/></svg>