<svg xmlns="http://www.w3.org/2000/svg" width="648.18" height="306.51" viewBox="0 0 648.18 306.51"><path d="M92.55,117.5q0,20.44-6,31.76-11.2,20.67-42.64,20.67-18.13,0-31-9.84T0,125.08V113.54H20.55v11.54q0,13.19,5.88,19.84t18.3,6.65q17.49,0,22.87-12,3.3-7.36,3.29-27.81V4.18H92.55Z" fill="#3d405b"/><path d="M186.29,4.18H211L269.6,165.64h-24l-16.37-48.36H165.41l-17.48,48.36H125.51Zm35.94,95.29L197.72,28.14,171.67,99.47Z" fill="#3d405b"/><path d="M412.15,8.79q24.08,12.65,29.46,44.3H420q-4-17.7-16.37-25.78t-31.33-8.08q-22.42,0-37.76,16.82T319.16,86.17q0,28.8,12.64,46.88T373,151.13q21.87,0,36.22-12.69t14.67-41.06H373.35V79.25h70.89v86.39H430.17l-5.27-20.77q-11.1,12.19-19.68,16.92-14.4,8.13-36.6,8.14-28.68,0-49.35-18.58-22.53-23.29-22.53-64t22-64.52Q339.6,0,372.8,0,395.56,0,412.15,8.79Z" fill="#3d405b"/><path d="M85.93,197.51v12.61H50.25v93.29H35.69V210.12H0V197.51Z" fill="#e07a5f"/><path d="M115.19,197.51H192.4v13H129.18v32.16h58.46v12.25H129.18v35.9h64.3v12.62H115.19Z" fill="#e07a5f"/><path d="M236.43,269.24q.51,9,4.26,14.63,7.14,10.53,25.16,10.53a44.55,44.55,0,0,0,14.71-2.31q12.82-4.47,12.83-16,0-8.65-5.41-12.33t-17.16-6.27l-14.34-3.25q-14.07-3.17-19.9-7-10.1-6.63-10.09-19.83,0-14.26,9.87-23.43t28-9.15q16.67,0,28.3,8t11.64,25.7H290.79q-1.08-8.51-4.61-13.05-6.57-8.29-22.28-8.29-12.69,0-18.24,5.33a16.7,16.7,0,0,0-5.55,12.4q0,7.78,6.49,11.39,4.26,2.31,19.25,5.77l14.85,3.39q10.74,2.44,16.58,6.7,10.1,7.43,10.09,21.56,0,17.6-12.79,25.16t-29.74,7.57q-19.75,0-30.93-10.09t-11-27.18Z" fill="#e07a5f"/><path d="M417.37,197.51v12.61H381.69v93.29H367.12V210.12H331.44V197.51Z" fill="#e07a5f"/><path d="M446.63,197.51h77.21v13H460.61v32.16h58.47v12.25H460.61v35.9h64.31v12.62H446.63Z" fill="#e07a5f"/><path d="M560.23,197.51h49q12.12,0,20,3.53,14.92,6.78,14.93,25,0,9.52-3.93,15.58a28.46,28.46,0,0,1-11,9.73,21.61,21.61,0,0,1,9.34,6.63q3.13,4.11,3.5,13.34l.5,14.2a43.22,43.22,0,0,0,1,9q1.29,5.06,4.61,6.49v2.38H630.59a13.28,13.28,0,0,1-1.15-3.53,67.27,67.27,0,0,1-.72-8.37l-.87-17.66q-.5-10.38-7.71-13.91Q616,258,607.24,258H574.58v45.42H560.23ZM607.74,246q10.1,0,16-4t5.87-14.57q0-11.31-8.21-15.42c-2.94-1.45-6.85-2.17-11.76-2.17h-35V246Z" fill="#e07a5f"/></svg>